<svg width="45" height="41" viewBox="0 0 45 41" fill="none" xmlns="http://www.w3.org/2000/svg">
<path d="M43.3727 9.09758C42.3175 8.5527 42.0658 7.95801 41.5637 6.96727C41.2621 6.42239 40.9605 5.92702 40.458 5.62968C39.9053 5.28283 38.6989 5.33233 38.2972 4.88647C37.8952 4.3911 38.247 3.30104 38.2972 2.75616C38.3977 1.91363 38.247 1.07172 37.4426 0.972706C37.2923 0.922892 37.1413 0.922892 36.9405 1.0219C36.8195 1.06239 36.7018 1.11215 36.5887 1.17073C34.9805 1.96345 33.7242 3.49937 32.5684 4.73764C30.6589 6.76925 28.7994 8.89955 26.7391 10.8813C25.0807 12.4665 23.5733 13.8539 21.1612 13.705C17.7943 13.507 14.5278 12.5658 11.2111 12.4665C8.94991 12.3675 6.38708 12.6153 4.52757 14.0024C3.02019 12.3675 1.864 10.5345 1.56271 8.30486C1.41206 7.31412 -0.0956313 7.71048 0.00479841 8.70153C0.356614 11.1784 1.71366 13.2592 3.372 15.0429C1.41206 17.5201 1.61292 21.0375 2.61816 23.8612C2.86923 24.6044 3.22105 25.3971 3.27126 26.1899C3.32147 27.1806 2.91944 28.2707 2.61816 29.2119C2.11569 30.7478 1.71366 32.1844 1.91452 33.7699C2.21612 36.148 3.02019 40.4581 6.03526 40.904C7.0904 41.0528 8.44745 40.7555 8.89969 39.7149C9.45237 38.4763 8.19606 36.9407 7.79403 35.8011C7.44221 34.8101 7.04018 33.5718 7.59317 32.6303C8.04541 31.8871 9.00012 31.3422 9.60301 30.7973C10.156 30.302 10.7087 29.8063 11.1107 29.1624C11.563 28.4687 11.563 27.6265 11.8646 26.9331C12.5679 25.3971 15.6837 25.0008 17.1914 24.9513C18.4979 24.852 19.8044 25.0005 21.0607 25.2978C24.2265 26.0905 26.7893 27.5271 27.2921 30.8468C27.7443 33.6213 27.6941 37.4856 29.7039 39.7149C30.9602 41.1023 35.1312 41.6967 34.7292 38.8727C34.6287 38.2288 34.2769 37.6341 33.9251 37.1387C33.6238 36.6929 33.0206 36.346 32.7695 35.9002C32.0659 34.6616 32.5181 32.4323 32.6186 31.0944C32.7193 30.0541 32.7193 28.9145 33.0708 27.9238C33.3724 27.1806 33.8749 26.5364 34.3271 25.8925C35.081 24.8024 35.2821 23.7124 35.4328 22.4243C35.634 20.6904 35.634 18.9564 35.7846 17.2225C35.885 15.7855 35.5834 13.6555 37.5936 13.7047C38.4981 13.7047 39.2017 14.2994 40.056 14.4479C40.7596 14.5968 41.5637 14.4479 42.2673 14.2499C43.674 13.8041 44.8301 12.813 44.9808 11.2771C45.1314 10.0883 44.3776 9.64276 43.3727 9.09758ZM34.1263 19.2537C34.0761 20.5913 34.0258 21.9784 33.7745 23.3163C33.5234 24.6539 32.6688 25.4466 32.0154 26.5862C31.2116 28.0723 31.1614 29.7568 31.061 31.3917C30.9602 32.7791 30.8096 34.2652 31.1109 35.6526C31.3121 36.6434 31.8145 36.9902 32.4679 37.7334C33.0708 38.4268 33.7748 39.3684 32.3173 39.3186C31.4128 39.2694 30.8598 38.6747 30.4578 37.9315C28.8999 35.1074 29.5533 31.59 28.4476 28.6667C26.89 24.4562 20.7591 23.0691 16.6886 23.4655C15.131 23.614 13.5728 23.9608 12.1662 24.7041C10.8094 25.3978 10.558 25.7941 10.2564 27.1812C9.50258 30.2032 5.43206 30.7979 5.83409 34.2658C5.98505 35.6034 6.48751 36.743 7.04018 37.9321C7.34178 38.5265 7.94467 39.1707 6.73889 39.4185C6.33655 39.5175 5.93483 39.369 5.63323 39.1707C4.97981 38.7743 4.62831 37.8331 4.37692 37.1889C3.72351 35.5044 3.22104 33.4731 3.57286 31.6897C3.87446 30.1537 4.67852 28.7171 4.87969 27.1317C5.08055 25.6948 4.52757 24.4067 4.02511 23.1189C3.372 21.3352 3.22105 19.4029 3.87446 17.5699C5.03003 14.3496 8.64831 14.003 11.6634 14.1512C14.9801 14.3496 18.1963 15.2413 21.513 15.3898C23.6738 15.4891 25.2317 14.4489 26.7893 13.0615C27.4929 12.4668 28.146 11.8229 28.7994 11.1787C30.0557 13.309 31.9652 14.7456 34.2769 15.7862C34.0761 17.0247 34.1765 18.3626 34.1263 19.2544M42.418 12.5661C40.1062 14.0027 37.2923 10.6833 35.1312 13.0612C34.8299 13.3588 34.629 13.7549 34.4781 14.201C32.5181 13.21 30.91 11.9219 29.9051 9.98961C30.8096 9.04869 31.7141 8.05764 32.6186 7.06659C33.5231 6.12536 34.3777 5.13462 35.332 4.24258C35.7344 3.84622 36.1866 3.35085 36.6891 3.004V3.05381C36.6389 3.30135 36.5887 3.54888 36.5887 3.79672C36.5385 4.39141 36.5385 5.0353 36.8397 5.58017C37.3425 6.52171 38.3977 6.52171 39.3021 6.91777C40.5584 7.46295 40.5584 9.14739 41.6641 9.98961C42.0661 10.287 42.5184 10.3863 42.9204 10.6833C43.2722 10.9312 43.4731 10.7823 43.5233 11.2777C43.5233 11.7236 42.82 12.3183 42.418 12.5661Z" fill="white"/>
</svg>
