<svg width="172" height="40" viewBox="0 0 172 40" fill="none" xmlns="http://www.w3.org/2000/svg">
<path d="M43.3727 8.15764C42.3175 7.61276 42.0658 7.01807 41.5637 6.02733C41.2621 5.48245 40.9605 4.98708 40.458 4.68974C39.9053 4.34289 38.6989 4.39239 38.2972 3.94653C37.8952 3.45116 38.247 2.3611 38.2972 1.81622C38.3977 0.973691 38.247 0.131777 37.4426 0.0327642C37.2923 -0.0170496 37.1413 -0.0170496 36.9405 0.081963C36.8195 0.122449 36.7018 0.172209 36.5887 0.230789C34.9805 1.0235 33.7242 2.55943 32.5684 3.7977C30.6589 5.8293 28.7994 7.95961 26.7391 9.9414C25.0807 11.5265 23.5733 12.9139 21.1612 12.7651C17.7943 12.5671 14.5278 11.6258 11.2111 11.5265C8.94991 11.4275 6.38708 11.6754 4.52757 13.0624C3.02019 11.4275 1.864 9.59455 1.56271 7.36492C1.41206 6.37418 -0.0956313 6.77054 0.00479841 7.76159C0.356614 10.2384 1.71366 12.3192 3.372 14.103C1.41206 16.5802 1.61292 20.0976 2.61816 22.9213C2.86923 23.6645 3.22105 24.4572 3.27126 25.2499C3.32147 26.2407 2.91944 27.3307 2.61816 28.2719C2.11569 29.8079 1.71366 31.2445 1.91452 32.8299C2.21612 35.2081 3.02019 39.5182 6.03526 39.964C7.0904 40.1129 8.44745 39.8155 8.89969 38.775C9.45237 37.5364 8.19606 36.0008 7.79403 34.8612C7.44221 33.8702 7.04018 32.6319 7.59317 31.6903C8.04541 30.9471 9.00012 30.4023 9.60301 29.8574C10.156 29.362 10.7087 28.8663 11.1107 28.2224C11.563 27.5287 11.563 26.6865 11.8646 25.9931C12.5679 24.4572 15.6837 24.0608 17.1914 24.0113C18.4979 23.912 19.8044 24.0605 21.0607 24.3579C24.2265 25.1506 26.7893 26.5872 27.2921 29.9069C27.7443 32.6814 27.6941 36.5456 29.7039 38.775C30.9602 40.1624 35.1312 40.7568 34.7292 37.9327C34.6287 37.2889 34.2769 36.6942 33.9251 36.1988C33.6238 35.7529 33.0206 35.4061 32.7695 34.9602C32.0659 33.7216 32.5181 31.4923 32.6186 30.1544C32.7193 29.1142 32.7193 27.9746 33.0708 26.9839C33.3724 26.2407 33.8749 25.5965 34.3271 24.9526C35.081 23.8625 35.2821 22.7724 35.4328 21.4844C35.634 19.7504 35.634 18.0165 35.7846 16.2825C35.885 14.8456 35.5834 12.7156 37.5936 12.7648C38.4981 12.7648 39.2017 13.3595 40.056 13.508C40.7596 13.6568 41.5637 13.508 42.2673 13.31C43.674 12.8641 44.8301 11.8731 44.9808 10.3371C45.1314 9.14838 44.3776 8.70282 43.3727 8.15764ZM34.1263 18.3138C34.0761 19.6514 34.0258 21.0385 33.7745 22.3764C33.5234 23.714 32.6688 24.5067 32.0154 25.6463C31.2116 27.1324 31.1614 28.8168 31.061 30.4518C30.9602 31.8392 30.8096 33.3253 31.1109 34.7127C31.3121 35.7034 31.8145 36.0503 32.4679 36.7935C33.0708 37.4869 33.7748 38.4284 32.3173 38.3786C31.4128 38.3294 30.8598 37.7347 30.4578 36.9915C28.8999 34.1675 29.5533 30.6501 28.4476 27.7268C26.89 23.5163 20.7591 22.1292 16.6886 22.5255C15.131 22.674 13.5728 23.0209 12.1662 23.7641C10.8094 24.4578 10.558 24.8542 10.2564 26.2413C9.50258 29.2633 5.43206 29.858 5.83409 33.3259C5.98505 34.6635 6.48751 35.8031 7.04018 36.9921C7.34178 37.5865 7.94467 38.2307 6.73889 38.4785C6.33655 38.5776 5.93483 38.429 5.63323 38.2307C4.97981 37.8344 4.62831 36.8931 4.37692 36.2489C3.72351 34.5645 3.22104 32.5332 3.57286 30.7497C3.87446 29.2138 4.67852 27.7772 4.87969 26.1918C5.08055 24.7549 4.52757 23.4668 4.02511 22.179C3.372 20.3952 3.22105 18.4629 3.87446 16.63C5.03003 13.4096 8.64831 13.0631 11.6634 13.2113C14.9801 13.4096 18.1963 14.3013 21.513 14.4499C23.6738 14.5492 25.2317 13.5089 26.7893 12.1215C27.4929 11.5268 28.146 10.8829 28.7994 10.2387C30.0557 12.3691 31.9652 13.8057 34.2769 14.8462C34.0761 16.0848 34.1765 17.4227 34.1263 18.3144M42.418 11.6262C40.1062 13.0628 37.2923 9.74338 35.1312 12.1212C34.8299 12.4189 34.629 12.8149 34.4781 13.2611C32.5181 12.27 30.91 10.982 29.9051 9.04967C30.8096 8.10875 31.7141 7.1177 32.6186 6.12665C33.5231 5.18542 34.3777 4.19467 35.332 3.30264C35.7344 2.90628 36.1866 2.41091 36.6891 2.06406V2.11387C36.6389 2.3614 36.5887 2.60894 36.5887 2.85678C36.5385 3.45147 36.5385 4.09535 36.8397 4.64023C37.3425 5.58177 38.3977 5.58177 39.3021 5.97782C40.5584 6.52301 40.5584 8.20745 41.6641 9.04967C42.0661 9.34702 42.5184 9.44634 42.9204 9.74338C43.2722 9.99122 43.4731 9.84239 43.5233 10.3378C43.5233 10.7836 42.82 11.3783 42.418 11.6262Z" fill="#154C7E"/>
<path d="M56.3645 30.1557H54V10.0738H60.4461C61.9849 10.0738 63.2558 10.3373 64.2587 10.8643C65.2637 11.3892 66.005 12.0915 66.4825 12.9713C66.962 13.8511 67.2018 14.8552 67.2018 15.9836C67.2018 17.0738 66.962 18.0641 66.4825 18.9545C66.005 19.8427 65.2689 20.5504 64.2743 21.0774C63.2797 21.6023 62.0037 21.8648 60.4461 21.8648H56.3645V30.1557ZM56.3645 12.082V19.8279H60.3898C61.9661 19.8279 63.0921 19.4794 63.7677 18.7823C64.4432 18.0832 64.781 17.1503 64.781 15.9836C64.781 14.7404 64.4432 13.7799 63.7677 13.102C63.0921 12.422 61.9661 12.082 60.3898 12.082H56.3645ZM76.4065 30.5C75.0929 30.5 73.92 30.1844 72.8879 29.5533C71.8558 28.9221 71.0488 28.0381 70.4671 26.9012C69.8853 25.7621 69.5945 24.4372 69.5945 22.9262C69.5945 21.3962 69.8801 20.0669 70.4514 18.9385C71.0248 17.8101 71.8318 16.9303 72.8722 16.2992C73.9148 15.668 75.1116 15.3525 76.4628 15.3525C77.8515 15.3525 79.0337 15.668 80.0095 16.2992C80.9854 16.9303 81.7308 17.758 82.2458 18.7823C82.7629 19.8045 83.0215 20.9276 83.0215 22.1516V22.7541C83.0215 22.9645 83.0121 23.2036 82.9933 23.4713H71.3678V21.6066H80.6851C80.6288 20.2869 80.2014 19.2541 79.4028 18.5082C78.6063 17.7623 77.6075 17.3893 76.4065 17.3893C75.6183 17.3893 74.8771 17.5764 74.1827 17.9504C73.4884 18.3223 72.9348 18.8673 72.5219 19.5856C72.1091 20.3018 71.9027 21.1954 71.9027 22.2664V23.0697C71.9027 24.2555 72.1133 25.25 72.5345 26.0533C72.9577 26.8566 73.5113 27.459 74.1952 27.8607C74.8812 28.2623 75.6183 28.4631 76.4065 28.4631C77.4011 28.4631 78.2216 28.2389 78.8679 27.7905C79.5164 27.34 79.9908 26.7227 80.291 25.9385H82.6274C82.3834 26.8183 81.98 27.5982 81.417 28.2782C80.854 28.9561 80.1545 29.4959 79.3183 29.8975C78.4843 30.2992 77.5137 30.5 76.4065 30.5ZM93.9432 30.1557H91.7476C90.9031 30.1557 90.1713 30.0219 89.552 29.7541C88.9327 29.4863 88.4584 29.0326 88.1289 28.393C87.8016 27.7512 87.6379 26.8852 87.6379 25.7951V17.7336H85.1608V15.6967H87.6379L87.9475 12.1967H90.0024V15.6967H94.1121V17.7336H90.0024V25.7951C90.0024 26.694 90.1807 27.3018 90.5372 27.6184C90.8938 27.9329 91.5224 28.0902 92.4232 28.0902H93.9432V30.1557ZM99.573 30.1557H97.2085V9.5H99.573V18.1352C100.042 17.2746 100.703 16.5956 101.556 16.0984C102.411 15.6011 103.345 15.3525 104.358 15.3525C105.447 15.3525 106.394 15.5777 107.201 16.0282C108.008 16.4766 108.628 17.1598 109.059 18.0779C109.491 18.9959 109.707 20.153 109.707 21.5492V30.1557H107.37V21.8074C107.37 20.3538 107.07 19.2594 106.469 18.5241C105.869 17.7867 104.996 17.418 103.852 17.418C103.045 17.418 102.317 17.6189 101.669 18.0205C101.022 18.4221 100.511 18.9959 100.136 19.7418C99.7607 20.4877 99.573 21.4057 99.573 22.4959V30.1557ZM118.01 30.5C116.866 30.5 115.909 30.2949 115.139 29.8848C114.37 29.4725 113.798 28.9274 113.422 28.2495C113.047 27.5695 112.859 26.8279 112.859 26.0246C112.859 25.0492 113.107 24.2225 113.604 23.5446C114.102 22.8646 114.806 22.3482 115.715 21.9954C116.626 21.6406 117.701 21.4631 118.939 21.4631H122.683C122.683 20.5642 122.547 19.8141 122.273 19.2127C122.002 18.6091 121.608 18.1544 121.091 17.8484C120.576 17.5423 119.934 17.3893 119.165 17.3893C118.264 17.3893 117.485 17.6189 116.828 18.0779C116.171 18.5369 115.768 19.2158 115.618 20.1148H113.197C113.31 19.082 113.652 18.2171 114.223 17.52C114.796 16.8209 115.524 16.2854 116.406 15.9135C117.288 15.5395 118.208 15.3525 119.165 15.3525C120.478 15.3525 121.571 15.5968 122.442 16.0856C123.316 16.5723 123.969 17.2512 124.4 18.1225C124.832 18.9917 125.048 20.0191 125.048 21.2049V30.1557H122.937L122.796 27.6025C122.608 28.0041 122.368 28.3824 122.076 28.7372C121.787 29.09 121.449 29.396 121.063 29.6553C120.679 29.9124 120.234 30.1175 119.728 30.2705C119.221 30.4235 118.649 30.5 118.01 30.5ZM118.376 28.4631C119.033 28.4631 119.629 28.325 120.162 28.0487C120.698 27.7703 121.154 27.3878 121.529 26.9012C121.904 26.4124 122.19 25.8716 122.386 25.2787C122.584 24.6858 122.683 24.0642 122.683 23.4139V23.3279H119.136C118.217 23.3279 117.476 23.4384 116.913 23.6594C116.35 23.8783 115.946 24.1843 115.702 24.5774C115.458 24.9684 115.336 25.4126 115.336 25.9098C115.336 26.4262 115.453 26.8757 115.687 27.2582C115.922 27.6407 116.269 27.9372 116.728 28.1475C117.189 28.3579 117.738 28.4631 118.376 28.4631ZM135.519 30.1557H132.789L127.412 15.6967H129.889L134.168 27.832L138.475 15.6967H140.896L135.519 30.1557ZM149.762 30.5C148.449 30.5 147.276 30.1844 146.244 29.5533C145.212 28.9221 144.405 28.0381 143.823 26.9012C143.241 25.7621 142.95 24.4372 142.95 22.9262C142.95 21.3962 143.236 20.0669 143.807 18.9385C144.381 17.8101 145.188 16.9303 146.228 16.2992C147.271 15.668 148.468 15.3525 149.819 15.3525C151.207 15.3525 152.39 15.668 153.365 16.2992C154.341 16.9303 155.087 17.758 155.602 18.7823C156.119 19.8045 156.377 20.9276 156.377 22.1516V22.7541C156.377 22.9645 156.368 23.2036 156.349 23.4713H144.724V21.6066H154.041C153.985 20.2869 153.557 19.2541 152.759 18.5082C151.962 17.7623 150.963 17.3893 149.762 17.3893C148.974 17.3893 148.233 17.5764 147.539 17.9504C146.844 18.3223 146.291 18.8673 145.878 19.5856C145.465 20.3018 145.259 21.1954 145.259 22.2664V23.0697C145.259 24.2555 145.469 25.25 145.89 26.0533C146.314 26.8566 146.867 27.459 147.551 27.8607C148.237 28.2623 148.974 28.4631 149.762 28.4631C150.757 28.4631 151.577 28.2389 152.224 27.7905C152.872 27.34 153.347 26.7227 153.647 25.9385H155.983C155.739 26.8183 155.336 27.5982 154.773 28.2782C154.21 28.9561 153.51 29.4959 152.674 29.8975C151.84 30.2992 150.87 30.5 149.762 30.5ZM161.895 30.1557H159.53V15.6967H161.669L161.782 18.2213C162.232 17.3224 162.875 16.6201 163.709 16.1143C164.545 15.6064 165.498 15.3525 166.567 15.3525C167.674 15.3525 168.632 15.5777 169.438 16.0282C170.245 16.4766 170.874 17.1556 171.324 18.0651C171.775 18.9725 172 20.1243 172 21.5205V30.1557H169.635V21.7787C169.635 20.3251 169.321 19.235 168.691 18.5082C168.063 17.7814 167.177 17.418 166.032 17.418C165.244 17.418 164.541 17.6146 163.921 18.0077C163.302 18.3988 162.809 18.963 162.442 19.7004C162.077 20.4356 161.895 21.3484 161.895 22.4385V30.1557Z" fill="#154C7E"/>
</svg>
