<svg width="172" height="41" viewBox="0 0 172 41" fill="none" xmlns="http://www.w3.org/2000/svg">
<path d="M43.3727 9.09758C42.3175 8.5527 42.0658 7.95801 41.5637 6.96727C41.2621 6.42239 40.9605 5.92702 40.458 5.62968C39.9053 5.28283 38.6989 5.33233 38.2972 4.88647C37.8952 4.3911 38.247 3.30104 38.2972 2.75616C38.3977 1.91363 38.247 1.07172 37.4426 0.972706C37.2923 0.922892 37.1413 0.922892 36.9405 1.0219C36.8195 1.06239 36.7018 1.11215 36.5887 1.17073C34.9805 1.96345 33.7242 3.49937 32.5684 4.73764C30.6589 6.76925 28.7994 8.89955 26.7391 10.8813C25.0807 12.4665 23.5733 13.8539 21.1612 13.705C17.7943 13.507 14.5278 12.5658 11.2111 12.4665C8.94991 12.3675 6.38708 12.6153 4.52757 14.0024C3.02019 12.3675 1.864 10.5345 1.56271 8.30486C1.41206 7.31412 -0.0956313 7.71048 0.00479841 8.70153C0.356614 11.1784 1.71366 13.2592 3.372 15.0429C1.41206 17.5201 1.61292 21.0375 2.61816 23.8612C2.86923 24.6044 3.22105 25.3971 3.27126 26.1899C3.32147 27.1806 2.91944 28.2707 2.61816 29.2119C2.11569 30.7478 1.71366 32.1844 1.91452 33.7699C2.21612 36.148 3.02019 40.4581 6.03526 40.904C7.0904 41.0528 8.44745 40.7555 8.89969 39.7149C9.45237 38.4763 8.19606 36.9407 7.79403 35.8011C7.44221 34.8101 7.04018 33.5718 7.59317 32.6303C8.04541 31.8871 9.00012 31.3422 9.60301 30.7973C10.156 30.302 10.7087 29.8063 11.1107 29.1624C11.563 28.4687 11.563 27.6265 11.8646 26.9331C12.5679 25.3971 15.6837 25.0008 17.1914 24.9513C18.4979 24.852 19.8044 25.0005 21.0607 25.2978C24.2265 26.0905 26.7893 27.5271 27.2921 30.8468C27.7443 33.6213 27.6941 37.4856 29.7039 39.7149C30.9602 41.1023 35.1312 41.6967 34.7292 38.8727C34.6287 38.2288 34.2769 37.6341 33.9251 37.1387C33.6238 36.6929 33.0206 36.346 32.7695 35.9002C32.0659 34.6616 32.5181 32.4323 32.6186 31.0944C32.7193 30.0541 32.7193 28.9145 33.0708 27.9238C33.3724 27.1806 33.8749 26.5364 34.3271 25.8925C35.081 24.8024 35.2821 23.7124 35.4328 22.4243C35.634 20.6904 35.634 18.9564 35.7846 17.2225C35.885 15.7855 35.5834 13.6555 37.5936 13.7047C38.4981 13.7047 39.2017 14.2994 40.056 14.4479C40.7596 14.5968 41.5637 14.4479 42.2673 14.2499C43.674 13.8041 44.8301 12.813 44.9808 11.2771C45.1314 10.0883 44.3776 9.64276 43.3727 9.09758ZM34.1263 19.2537C34.0761 20.5913 34.0258 21.9784 33.7745 23.3163C33.5234 24.6539 32.6688 25.4466 32.0154 26.5862C31.2116 28.0723 31.1614 29.7568 31.061 31.3917C30.9602 32.7791 30.8096 34.2652 31.1109 35.6526C31.3121 36.6434 31.8145 36.9902 32.4679 37.7334C33.0708 38.4268 33.7748 39.3684 32.3173 39.3186C31.4128 39.2694 30.8598 38.6747 30.4578 37.9315C28.8999 35.1074 29.5533 31.59 28.4476 28.6667C26.89 24.4562 20.7591 23.0691 16.6886 23.4655C15.131 23.614 13.5728 23.9608 12.1662 24.7041C10.8094 25.3978 10.558 25.7941 10.2564 27.1812C9.50258 30.2032 5.43206 30.7979 5.83409 34.2658C5.98505 35.6034 6.48751 36.743 7.04018 37.9321C7.34178 38.5265 7.94467 39.1707 6.73889 39.4185C6.33655 39.5175 5.93483 39.369 5.63323 39.1707C4.97981 38.7743 4.62831 37.8331 4.37692 37.1889C3.72351 35.5044 3.22104 33.4731 3.57286 31.6897C3.87446 30.1537 4.67852 28.7171 4.87969 27.1317C5.08055 25.6948 4.52757 24.4067 4.02511 23.1189C3.372 21.3352 3.22105 19.4029 3.87446 17.5699C5.03003 14.3496 8.64831 14.003 11.6634 14.1512C14.9801 14.3496 18.1963 15.2413 21.513 15.3898C23.6738 15.4891 25.2317 14.4489 26.7893 13.0615C27.4929 12.4668 28.146 11.8229 28.7994 11.1787C30.0557 13.309 31.9652 14.7456 34.2769 15.7862C34.0761 17.0247 34.1765 18.3626 34.1263 19.2544M42.418 12.5661C40.1062 14.0027 37.2923 10.6833 35.1312 13.0612C34.8299 13.3588 34.629 13.7549 34.4781 14.201C32.5181 13.21 30.91 11.9219 29.9051 9.98961C30.8096 9.04869 31.7141 8.05764 32.6186 7.06659C33.5231 6.12536 34.3777 5.13462 35.332 4.24258C35.7344 3.84622 36.1866 3.35085 36.6891 3.004V3.05381C36.6389 3.30135 36.5887 3.54888 36.5887 3.79672C36.5385 4.39141 36.5385 5.0353 36.8397 5.58017C37.3425 6.52171 38.3977 6.52171 39.3021 6.91777C40.5584 7.46295 40.5584 9.14739 41.6641 9.98961C42.0661 10.287 42.5184 10.3863 42.9204 10.6833C43.2722 10.9312 43.4731 10.7823 43.5233 11.2777C43.5233 11.7236 42.82 12.3183 42.418 12.5661Z" fill="white"/>
<path d="M56.3645 31.0957H54V11.0137H60.4461C61.9849 11.0137 63.2558 11.2772 64.2587 11.8042C65.2637 12.3291 66.005 13.0315 66.4825 13.9113C66.962 14.791 67.2018 15.7951 67.2018 16.9235C67.2018 18.0137 66.962 19.004 66.4825 19.8944C66.005 20.7827 65.2689 21.4903 64.2743 22.0174C63.2797 22.5422 62.0037 22.8047 60.4461 22.8047H56.3645V31.0957ZM56.3645 13.0219V20.7678H60.3898C61.9661 20.7678 63.0921 20.4193 63.7677 19.7223C64.4432 19.0231 64.781 18.0902 64.781 16.9235C64.781 15.6804 64.4432 14.7198 63.7677 14.0419C63.0921 13.3619 61.9661 13.0219 60.3898 13.0219H56.3645ZM76.4065 31.4399C75.0929 31.4399 73.92 31.1244 72.8879 30.4932C71.8558 29.8621 71.0488 28.978 70.4671 27.8411C69.8853 26.7021 69.5945 25.3771 69.5945 23.8662C69.5945 22.3361 69.8801 21.0069 70.4514 19.8785C71.0248 18.75 71.8318 17.8703 72.8722 17.2391C73.9148 16.608 75.1116 16.2924 76.4628 16.2924C77.8515 16.2924 79.0337 16.608 80.0095 17.2391C80.9854 17.8703 81.7308 18.698 82.2458 19.7223C82.7629 20.7444 83.0215 21.8675 83.0215 23.0916V23.694C83.0215 23.9044 83.0121 24.1435 82.9933 24.4113H71.3678V22.5465H80.6851C80.6288 21.2268 80.2014 20.194 79.4028 19.4481C78.6063 18.7022 77.6075 18.3293 76.4065 18.3293C75.6183 18.3293 74.8771 18.5163 74.1827 18.8903C73.4884 19.2622 72.9348 19.8073 72.5219 20.5255C72.1091 21.2417 71.9027 22.1353 71.9027 23.2063V24.0096C71.9027 25.1954 72.1133 26.1899 72.5345 26.9932C72.9577 27.7965 73.5113 28.399 74.1952 28.8006C74.8812 29.2022 75.6183 29.4031 76.4065 29.4031C77.4011 29.4031 78.2216 29.1789 78.8679 28.7305C79.5164 28.28 79.9908 27.6626 80.291 26.8785H82.6274C82.3834 27.7582 81.98 28.5381 81.417 29.2182C80.854 29.8961 80.1545 30.4358 79.3183 30.8375C78.4843 31.2391 77.5137 31.4399 76.4065 31.4399ZM93.9432 31.0957H91.7476C90.9031 31.0957 90.1713 30.9618 89.552 30.694C88.9327 30.4263 88.4584 29.9726 88.1289 29.3329C87.8016 28.6912 87.6379 27.8252 87.6379 26.735V18.6735H85.1608V16.6367H87.6379L87.9475 13.1367H90.0024V16.6367H94.1121V18.6735H90.0024V26.735C90.0024 27.6339 90.1807 28.2417 90.5372 28.5583C90.8938 28.8728 91.5224 29.0301 92.4232 29.0301H93.9432V31.0957ZM99.573 31.0957H97.2085V10.4399H99.573V19.0752C100.042 18.2145 100.703 17.5356 101.556 17.0383C102.411 16.541 103.345 16.2924 104.358 16.2924C105.447 16.2924 106.394 16.5177 107.201 16.9682C108.008 17.4166 108.628 18.0998 109.059 19.0178C109.491 19.9358 109.707 21.0929 109.707 22.4891V31.0957H107.37V22.7473C107.37 21.2938 107.07 20.1994 106.469 19.4641C105.869 18.7267 104.996 18.358 103.852 18.358C103.045 18.358 102.317 18.5588 101.669 18.9604C101.022 19.3621 100.511 19.9358 100.136 20.6817C99.7607 21.4276 99.573 22.3457 99.573 23.4358V31.0957ZM118.01 31.4399C116.866 31.4399 115.909 31.2349 115.139 30.8247C114.37 30.4125 113.798 29.8674 113.422 29.1895C113.047 28.5095 112.859 27.7678 112.859 26.9645C112.859 25.9891 113.107 25.1625 113.604 24.4846C114.102 23.8045 114.806 23.2881 115.715 22.9354C116.626 22.5805 117.701 22.4031 118.939 22.4031H122.683C122.683 21.5041 122.547 20.754 122.273 20.1526C122.002 19.5491 121.608 19.0943 121.091 18.7883C120.576 18.4823 119.934 18.3293 119.165 18.3293C118.264 18.3293 117.485 18.5588 116.828 19.0178C116.171 19.4768 115.768 20.1558 115.618 21.0547H113.197C113.31 20.0219 113.652 19.157 114.223 18.46C114.796 17.7608 115.524 17.2253 116.406 16.8534C117.288 16.4794 118.208 16.2924 119.165 16.2924C120.478 16.2924 121.571 16.5368 122.442 17.0256C123.316 17.5122 123.969 18.1912 124.4 19.0624C124.832 19.9316 125.048 20.9591 125.048 22.1449V31.0957H122.937L122.796 28.5424C122.608 28.944 122.368 29.3223 122.076 29.6772C121.787 30.03 121.449 30.336 121.063 30.5952C120.679 30.8524 120.234 31.0574 119.728 31.2104C119.221 31.3634 118.649 31.4399 118.01 31.4399ZM118.376 29.4031C119.033 29.4031 119.629 29.2649 120.162 28.9887C120.698 28.7103 121.154 28.3278 121.529 27.8411C121.904 27.3524 122.19 26.8115 122.386 26.2186C122.584 25.6257 122.683 25.0041 122.683 24.3539V24.2678H119.136C118.217 24.2678 117.476 24.3783 116.913 24.5993C116.35 24.8182 115.946 25.1242 115.702 25.5174C115.458 25.9084 115.336 26.3525 115.336 26.8498C115.336 27.3662 115.453 27.8156 115.687 28.1981C115.922 28.5807 116.269 28.8771 116.728 29.0875C117.189 29.2979 117.738 29.4031 118.376 29.4031ZM135.519 31.0957H132.789L127.412 16.6367H129.889L134.168 28.7719L138.475 16.6367H140.896L135.519 31.0957ZM149.762 31.4399C148.449 31.4399 147.276 31.1244 146.244 30.4932C145.212 29.8621 144.405 28.978 143.823 27.8411C143.241 26.7021 142.95 25.3771 142.95 23.8662C142.95 22.3361 143.236 21.0069 143.807 19.8785C144.381 18.75 145.188 17.8703 146.228 17.2391C147.271 16.608 148.468 16.2924 149.819 16.2924C151.207 16.2924 152.39 16.608 153.365 17.2391C154.341 17.8703 155.087 18.698 155.602 19.7223C156.119 20.7444 156.377 21.8675 156.377 23.0916V23.694C156.377 23.9044 156.368 24.1435 156.349 24.4113H144.724V22.5465H154.041C153.985 21.2268 153.557 20.194 152.759 19.4481C151.962 18.7022 150.963 18.3293 149.762 18.3293C148.974 18.3293 148.233 18.5163 147.539 18.8903C146.844 19.2622 146.291 19.8073 145.878 20.5255C145.465 21.2417 145.259 22.1353 145.259 23.2063V24.0096C145.259 25.1954 145.469 26.1899 145.89 26.9932C146.314 27.7965 146.867 28.399 147.551 28.8006C148.237 29.2022 148.974 29.4031 149.762 29.4031C150.757 29.4031 151.577 29.1789 152.224 28.7305C152.872 28.28 153.347 27.6626 153.647 26.8785H155.983C155.739 27.7582 155.336 28.5381 154.773 29.2182C154.21 29.8961 153.51 30.4358 152.674 30.8375C151.84 31.2391 150.87 31.4399 149.762 31.4399ZM161.895 31.0957H159.53V16.6367H161.669L161.782 19.1613C162.232 18.2623 162.875 17.56 163.709 17.0542C164.545 16.5463 165.498 16.2924 166.567 16.2924C167.674 16.2924 168.632 16.5177 169.438 16.9682C170.245 17.4166 170.874 18.0955 171.324 19.0051C171.775 19.9125 172 21.0643 172 22.4604V31.0957H169.635V22.7186C169.635 21.2651 169.321 20.1749 168.691 19.4481C168.063 18.7214 167.177 18.358 166.032 18.358C165.244 18.358 164.541 18.5545 163.921 18.9477C163.302 19.3387 162.809 19.9029 162.442 20.6403C162.077 21.3756 161.895 22.2883 161.895 23.3785V31.0957Z" fill="white"/>
</svg>
