<svg width="696" height="18" viewBox="0 0 696 18" fill="none" xmlns="http://www.w3.org/2000/svg">
<path d="M1.5 9C13.05 -0.333333 24.6 -0.333333 36.15 9C47.7 18.3333 59.25 18.3333 70.8 9C82.35 -0.333333 93.9 -0.333333 105.45 9C117 18.3333 128.55 18.3333 140.1 9C151.65 -0.333333 163.2 -0.333333 174.75 9C186.3 18.3333 197.85 18.3333 209.4 9C220.95 -0.333333 232.5 -0.333333 244.05 9C255.6 18.3333 267.15 18.3333 278.7 9C290.25 -0.333333 301.8 -0.333333 313.35 9C324.9 18.3333 336.45 18.3333 348 9C359.55 -0.333333 371.1 -0.333333 382.65 9C394.2 18.3333 405.75 18.3333 417.3 9C428.85 -0.333333 440.4 -0.333333 451.95 9C463.5 18.3333 475.05 18.3333 486.6 9C498.15 -0.333333 509.7 -0.333333 521.25 9C532.8 18.3333 544.35 18.3333 555.9 9C567.45 -0.333333 579 -0.333333 590.55 9C602.1 18.3333 613.65 18.3333 625.2 9C636.75 -0.333333 648.3 -0.333333 659.85 9C671.4 18.3333 682.95 18.3333 694.5 9" stroke="#EF937E" stroke-width="4"/>
</svg>
